<?xml version="1.0" standalone="no"?>
<!DOCTYPE svg PUBLIC "-//W3C//DTD SVG 20010904//EN"
 "http://www.w3.org/TR/2001/REC-SVG-20010904/DTD/svg10.dtd">
<svg version="1.0" xmlns="http://www.w3.org/2000/svg"
 width="500.000000pt" height="500.000000pt" viewBox="0 0 500.000000 500.000000"
 preserveAspectRatio="xMidYMid meet">

<g transform="translate(0.000000,500.000000) scale(0.100000,-0.100000)"
fill="#000000" stroke="none">
<path d="M2352 4220 c-149 -21 -337 -86 -457 -158 -173 -104 -339 -257 -458
-423 -138 -193 -260 -482 -307 -729 -28 -145 -26 -140 -46 -140 -32 0 -103
-50 -133 -93 -88 -129 -73 -307 34 -406 24 -22 61 -45 82 -51 l39 -12 23 -117
c27 -140 87 -323 146 -449 157 -333 413 -604 700 -742 194 -93 319 -123 520
-124 213 0 353 33 550 131 137 68 229 137 356 263 252 251 417 583 489 982 11
63 14 67 42 74 42 9 114 78 144 135 78 154 -4 385 -148 415 -24 6 -27 13 -38
73 -121 703 -575 1236 -1155 1356 -95 19 -295 27 -383 15z m383 -90 c210 -46
416 -158 585 -317 586 -551 697 -1596 247 -2318 -200 -322 -465 -526 -802
-617 -93 -25 -327 -35 -432 -18 -401 64 -769 359 -977 783 -57 116 -128 329
-155 463 -101 500 1 1050 271 1454 80 120 242 289 355 370 175 125 390 206
583 219 105 7 248 -1 325 -19z m1237 -1467 c39 -41 58 -94 58 -163 0 -33 -7
-77 -16 -98 -14 -35 -60 -92 -74 -92 -4 0 -10 73 -13 163 -4 89 -9 179 -13
201 -6 35 -6 38 12 28 10 -6 31 -23 46 -39z m-2887 -315 c8 -66 2 -71 -43 -33
-46 39 -72 101 -72 173 0 74 19 124 63 170 l32 33 6 -143 c3 -79 10 -169 14
-200z"/>
<path d="M3030 2742 c-75 -38 -104 -137 -59 -209 55 -89 194 -90 249 -1 30 47
24 137 -11 174 -52 55 -115 68 -179 36z"/>
<path d="M1808 2690 c-140 -76 -77 -293 81 -277 78 8 135 68 133 142 -1 115
-116 188 -214 135z"/>
<path d="M2670 2104 c-49 -50 -103 -76 -161 -76 -47 1 -115 27 -152 60 -16 14
-19 14 -32 -4 -20 -27 -19 -30 22 -59 125 -85 259 -68 368 45 39 40 39 42 21
56 -26 19 -26 19 -66 -22z"/>
<path d="M3236 1875 c-148 -84 -398 -162 -598 -185 -145 -17 -409 -8 -553 19
-97 18 -329 77 -377 96 -16 6 -17 2 -12 -41 17 -130 90 -288 193 -416 123
-151 272 -254 431 -295 79 -20 260 -22 345 -4 331 72 558 341 629 747 18 101
19 114 9 114 -5 0 -35 -16 -67 -35z m-16 -99 c0 -2 -11 -43 -25 -91 -109 -376
-349 -575 -694 -575 -118 0 -193 15 -286 59 -112 52 -240 172 -333 311 -35 53
-105 210 -97 218 2 3 39 -5 82 -16 445 -119 926 -93 1283 71 55 25 70 30 70
23z"/>
</g>
</svg>
