<?xml version="1.0" standalone="no"?>
<!DOCTYPE svg PUBLIC "-//W3C//DTD SVG 20010904//EN"
 "http://www.w3.org/TR/2001/REC-SVG-20010904/DTD/svg10.dtd">
<svg version="1.0" xmlns="http://www.w3.org/2000/svg"
 width="500.000000pt" height="500.000000pt" viewBox="0 0 500.000000 500.000000"
 preserveAspectRatio="xMidYMid meet">

<g transform="translate(0.000000,500.000000) scale(0.100000,-0.100000)"
fill="#000000" stroke="none">
<path d="M2390 4224 c-14 -2 -59 -9 -100 -15 -90 -13 -254 -66 -337 -107 -459
-232 -782 -734 -861 -1338 l-17 -132 -49 -34 c-73 -49 -109 -118 -114 -222 -3
-65 0 -92 17 -138 27 -69 83 -130 143 -152 l45 -18 27 -101 c166 -617 588
-1058 1121 -1173 112 -24 332 -24 445 0 256 55 485 180 675 371 131 131 218
256 310 440 74 151 117 266 150 406 l18 76 44 11 c63 17 144 100 168 171 26
79 18 202 -18 263 -32 56 -86 104 -125 113 -29 6 -30 8 -41 98 -107 812 -610
1396 -1271 1477 -81 10 -178 11 -230 4z m390 -108 c468 -130 843 -554 985
-1111 91 -355 86 -717 -13 -1060 -169 -585 -593 -1005 -1094 -1085 -107 -17
-329 -8 -434 19 -356 89 -682 368 -871 746 -77 151 -148 362 -158 463 -3 31
-12 97 -21 146 -19 119 -27 378 -14 491 74 657 458 1197 975 1370 139 47 196
55 380 51 147 -3 183 -7 265 -30z m1198 -1593 c53 -76 55 -190 6 -269 -16 -27
-44 -57 -63 -68 l-34 -20 7 37 c14 75 26 205 26 285 0 79 1 82 19 72 11 -5 28
-22 39 -37z m-2888 -262 c5 -58 8 -107 5 -109 -11 -11 -91 86 -103 125 -25 84
-6 181 46 236 l27 29 7 -89 c4 -48 12 -135 18 -192z"/>
<path d="M2940 2754 c-14 -3 -49 -12 -78 -20 -48 -13 -52 -17 -46 -37 3 -12 8
-23 9 -25 2 -2 30 4 63 12 33 9 79 16 103 16 l43 0 -23 -21 c-59 -55 -63 -144
-9 -204 73 -84 192 -63 247 42 l17 35 28 -61 c24 -54 30 -61 49 -55 12 3 24 8
26 10 10 9 -72 158 -109 198 -76 82 -215 130 -320 110z"/>
<path d="M1844 2701 c-61 -15 -124 -53 -169 -103 -46 -51 -98 -148 -109 -204
-6 -27 -4 -32 15 -37 28 -7 39 -1 39 21 0 9 13 44 28 77 l28 59 22 -45 c24
-50 80 -89 128 -89 47 0 108 36 132 79 35 61 28 115 -21 169 l-20 22 49 0 c27
0 64 -4 82 -9 29 -9 33 -7 38 15 4 14 4 27 2 29 -20 20 -183 30 -244 16z"/>
<path d="M2659 2074 c-88 -92 -183 -104 -291 -35 l-47 30 -15 -24 c-15 -22
-14 -24 25 -50 88 -57 188 -71 266 -35 24 10 65 40 93 66 48 45 49 48 34 66
-23 24 -25 24 -65 -18z"/>
<path d="M2348 1645 c-90 -17 -221 -64 -287 -101 -63 -36 -170 -116 -204 -151
l-27 -29 25 -24 24 -23 53 45 c177 149 361 219 577 220 223 0 417 -76 583
-231 l59 -54 25 24 24 23 -47 49 c-103 105 -267 199 -418 237 -106 28 -285 34
-387 15z"/>
</g>
</svg>
